<svg id="图层_1" data-name="图层 1" xmlns="http://www.w3.org/2000/svg" viewBox="0 0 476.41 236.9"><defs><style>.cls-1{fill:#666464;}.cls-2{fill:#005bac;}</style></defs><title>融通LOGO规范后</title><path class="cls-1" d="M397.66,344.26l-2.35,3.79H366v-3.79Zm-23.6,49.45H366v-23.8h30.45v23.8h-9.23L386,389.85h2.42V370.4l-2,3.29H374.06Zm21.68-26.37h-29V350.62h29Zm-12.92,7.8h5l-2.4,5.62h2.17l-2.27,3.86h-.94v9.09H378v-9.09h-3.2v-3.86h2.11l-2.36-5.62h5l1.65,3.78Zm-7.2-20.74v9h11.27V351.26l-2,3.14ZM407,374.57h-8.92V352.71h12.6v-8.45h8.14v8.45H431.2v21.86h-8.92v-.07h-3.45v12.78l3.53-.48-1.09-7h8.84l2.19,13.91h-8.84l-.55-3.14-24.82,3.14v-3.86l12.6-1.53V374.5H407Zm0-3.93h3.68V356.49H407Zm11.82-14.15v14.15h3.45l.07-17.29-2,3.14Z" transform="translate(-180.59 -156.8)"/><path class="cls-1" d="M452.81,393.39H442.32v-3.62h4V363.4h-4v-3.69H455.4v30.06h51l-1.65,3.62H458l-2.82-3.22Zm-5.24-38.19-4.07-10.69,9.47.08,4.23,10.61Zm21.53,32.08h-8.93V356h6.19l-2.19-4.11h9.63L476,356h10.64l3.53-7.65H461.74v-3.53l39.61.08L496.11,356h6.73v31.27H490.08l-1.87-3.78h5.47V378h-8.29v9.24h-8.93V378H469.1Zm0-22.18h7.36v-5.64H469.1Zm0,9.47h7.36v-6H469.1Zm16.29-9.47h8.29v-5.64h-8.29Zm0,9.47h8.29v-6h-8.29Z" transform="translate(-180.59 -156.8)"/><path class="cls-1" d="M528.29,356.57l4.31-5.71h-4.55l-2,3.21h-9.79l6.18-9.88h9.87l-2,3.21,21.53-.08L550,350.86h-7.51l-4.39,5.71h15.74l-2,4H535.1l-7.28,9.64H518l7.28-9.64h-8.38v-4ZM522.41,372h47.92l-2,3.78h-37v4.83h39V372h8.92v21.63H522.41Zm8.93,12.39v5.46h39v-5.46Zm21.53-14.16h-9.79l-7.83-7.55h9.87Zm29.84-1.52H554V346.2h19.8l-2,3.78h-8.85v14.95h10.88V346.2h8.94Z" transform="translate(-180.59 -156.8)"/><path class="cls-1" d="M619.57,355.92h-7.66v1.78h11.35l-1.72,3.45h-9.63v1.77h-8.62v-1.77H592.34V357.7h10.95v-1.78h-9v-3.45h9V350.7H592.34v-3.46h10.95v-3.05h8.62v3.05l11.35-.07-1.72,3.53h-9.63v1.77h9.39Zm-19.1,37.71h-8.13l2-11.49h8.15Zm52.85-12.87h-9.71v-3.37l-1.56,3.37h-46.9v-3.45h48.46v-3.13H597.43v-3.46h46.18v-3.14H595.15v-3.46h58.17Zm-10.1,12.87H603.53V382.14h8.14v8h33.2ZM632,388.81h-8.14l-3.53-6.67h8.15Zm20.59-32.89h-7.28v1.78l11-.09-1.73,3.54h-9.23v1.77h-8.61v-1.77H625.29V357.7h11.36v-1.78h-9.4v-3.45h9.4V350.7H625.29v-3.46h11.36v-3.05h8.61v3.05l11-.07-1.73,3.53h-9.23v1.77l9-.08ZM657,393.63h-8.92l-4.39-11.49h8.54Z" transform="translate(-180.59 -156.8)"/><path class="cls-2" d="M577,224.82H540.55v83.32H458.64l66-57.44V225H473.17c8.3-21,9.21-43.74,1.49-55-6.81-9.91-20.18-14-37.82-13.06,8.66,1.7,15.36,5.46,19.51,11.49,8.1,11.79,5.15,35.1-6.33,56.54H299.6v22.19h36.31v67.57H276.19l-25.91-29.59h32.89V237.35l.05-12.53H180.59V330.49h36.78V292.7l30.73,37.79h90.78c-64.75,41.84-126.47,55.9-143.79,30.7-3.79-5.52-5.13-12.53-4.35-20.62-5.63,15.72-5.78,29.09.65,38.44C212,408.92,298.08,392.66,376.31,335c39-28.76,68.62-57.59,86-87.79h18.81l-61.61,55v28.47h126v-.16H577V284.34h33.37l9.15-20.26H577ZM250.12,265H217.37v-20h32.75Zm124,40.07v-58h61.79C420.84,267.62,399.67,284.62,374.09,305.11Z" transform="translate(-180.59 -156.8)"/><rect class="cls-2" x="439.57" y="68.01" width="36.47" height="105.67"/></svg>